<svg xmlns="http://www.w3.org/2000/svg" xmlns:xlink="http://www.w3.org/1999/xlink" width="220" height="66" viewBox="0 0 220 66">
    <defs>
        <path id="prefix__a" d="M0.64 0.354L1.64 0.354 1.64 65 0.64 65z"/>
        <path id="prefix__c" d="M0 0.405L30.389 0.405 30.389 35.494 0 35.494z"/>
        <path id="prefix__e" d="M0.695 0.161L18 0.161 18 38.525 0.695 38.525z"/>
        <path id="prefix__g" d="M0 65.591L220 65.591 220 0 0 0z"/>
    </defs>
    <g fill="none" fill-rule="evenodd">
        <path fill="#FFF" d="M144.588.524l-5.976 38.593h6.626l1.76-15.168c-1.396-.702-2.333-2.001-2.333-3.487 0-2.232 2.112-4.042 4.72-4.042 2.605 0 4.718 1.81 4.718 4.042 0 1.365-.79 2.572-2 3.304l1.833 15.35h6.745L154.823.525h-10.235z"/>
        <g transform="translate(91 .591)">
            <mask id="prefix__b" fill="#fff">
                <use xlink:href="#prefix__a"/>
            </mask>
            <path stroke="#AFB2B7" stroke-width="1.466" d="M1.14 65L1.14 0.354" mask="url(#prefix__b)"/>
        </g>
        <path fill="#8C97AC" d="M46.643 55.473L46.643 37.928 31.448 29.155 16.254 37.928 16.254 55.473 31.448 64.245zM62.897 27.314L62.897 9.769 47.703.997 32.508 9.769 32.508 27.314 47.703 36.086zM79.152 55.407L79.152 37.862 63.958 29.09 48.763 37.862 48.763 55.407 63.958 64.179z"/>
        <g transform="translate(0 .591)">
            <mask id="prefix__d" fill="#fff">
                <use xlink:href="#prefix__c"/>
            </mask>
            <path fill="#8C97AC" d="M30.389 26.722L30.389 9.177 15.195 0.405 0 9.177 0 26.722 15.195 35.494z" mask="url(#prefix__d)"/>
        </g>
        <path fill="#FFF" d="M119.528 11.82v-.914c0-2.31-.681-4.136-2.124-4.136-1.602 0-2.322 1.665-2.322 3.386 0 7.575 12.178 3.867 12.178 17.892 0 8.167-3.566 11.82-10.136 11.82-6.168 0-9.614-2.848-9.614-10.8v-1.343h7.21v.913c0 3.278 1.002 4.46 2.445 4.46 1.561 0 2.403-1.611 2.403-3.706 0-7.578-11.697-3.816-11.697-17.41 0-7.79 3.085-11.981 9.374-11.981 6.53 0 9.254 3.599 9.254 11.82h-6.97zM173.01.753L189.955.753 189.955 8.92 180.46 8.92 180.46 15.475 189.355 15.475 189.355 23.319 180.46 23.319 180.46 39.117 173.01 39.117z"/>
        <g transform="translate(202 .591)">
            <mask id="prefix__f" fill="#fff">
                <use xlink:href="#prefix__e"/>
            </mask>
            <path fill="#FFF" d="M0.695 0.161L17.64 0.161 17.64 8.328 8.146 8.328 8.146 14.883 17.04 14.883 17.04 22.727 8.146 22.727 8.146 30.357 18.001 30.357 18.001 38.525 0.695 38.525z" mask="url(#prefix__f)"/>
        </g>
        <mask id="prefix__h" fill="#fff">
            <use xlink:href="#prefix__g"/>
        </mask>
        <path fill="#60656F" d="M108.622 64.381L112.441 64.381 112.441 51.51 108.622 51.51zM126.578 57.974c0-2.075-1.268-3.452-3.104-3.452h-1.744v6.867h1.928c1.744 0 2.92-1.36 2.92-3.415m3.892-.037c0 3.874-2.809 6.445-7.05 6.445h-5.509V51.51h5.637c4.168 0 6.922 2.552 6.922 6.426M145.728 51.511L145.728 54.449 139.026 54.449 139.026 56.468 145.103 56.468 145.103 59.406 139.026 59.406 139.026 61.444 145.912 61.444 145.912 64.382 135.207 64.382 135.207 51.511zM154.32 51.511L159.773 58.708 159.773 51.511 163.261 51.511 163.261 64.382 160.011 64.382 154.558 57.221 154.558 64.382 151.051 64.382 151.051 51.511zM179.069 51.511L179.069 54.559 175.324 54.559 175.324 64.382 171.486 64.382 171.486 54.559 167.758 54.559 167.758 51.511zM183.566 64.381L187.385 64.381 187.385 51.51 183.566 51.51zM203.194 51.511L203.194 54.559 199.448 54.559 199.448 64.382 195.611 64.382 195.611 54.559 191.883 54.559 191.883 51.511zM214.998 60.306L214.998 64.382 211.179 64.382 211.179 60.379 206.46 51.511 210.279 51.511 213.089 56.762 215.824 51.511 219.625 51.511z" mask="url(#prefix__h)"/>
        <path fill="#FFF" d="M39.871 53.607c-.378 0-.679-.303-.679-.68 0-.377.304-.677.68-.677.377 0 .677.303.677.678.004.376-.3.679-.678.679zm-13.519-6.651c-1.056.003-1.912-.853-1.912-1.91 0-.856.58-1.612 1.408-1.837.126-.025.252-.127.327-.253.075-.126.075-.276.024-.402-.174-.426-.249-.88-.249-1.333 0-2.063 1.661-3.727 3.727-3.727 1.585 0 2.996 1.006 3.498 2.492.05.126.126.225.252.277.126.05.252.075.378.024.805-.304 1.763-.126 2.39.429.604.529.907 1.309.805 2.114-.024.177.051.379.201.478.15.098.352.126.53.024.275-.151.578-.202.88-.202 1.055 0 1.911.856 1.911 1.913s-.856 1.913-1.912 1.913H26.352zm6.823 5.972c0 .376-.3.679-.679.679-.378 0-.679-.303-.679-.68 0-.377.304-.677.68-.677.377 0 .678.303.678.678zm-8.054.679c-.378 0-.678-.303-.678-.68 0-.377.303-.677.678-.677.376 0 .68.3.68.675 0 .379-.304.682-.68.682zm14.75-2.366c-.757 0-1.408.504-1.613 1.183h-1.735v-4.456h2.141c1.612 0 2.918-1.31 2.918-2.92 0-1.608-1.306-2.92-2.918-2.92-.2 0-.403.023-.604.05-.075-.855-.504-1.66-1.159-2.24-.63-.528-1.459-.88-2.946-.756-.78-1.637-2.44-2.718-4.278-2.718-2.619.024-4.757 2.14-4.757 4.757 0 .402.051.804.15 1.207-.982.48-1.636 1.486-1.636 2.618 0 1.613 1.31 2.919 2.918 2.919h2.142v4.456h-1.736c-.225-.68-.856-1.183-1.613-1.183-.93 0-1.687.756-1.687 1.687 0 .93.757 1.688 1.687 1.688.757 0 1.41-.505 1.613-1.183h2.24c.276 0 .504-.225.504-.505v-4.957h2.493v3.324c-.679.225-1.184.856-1.184 1.612 0 .93.757 1.688 1.688 1.688.931 0 1.687-.757 1.687-1.688 0-.756-.504-1.408-1.182-1.612v-3.324h2.492v4.96c0 .277.225.505.504.505h2.24c.226.678.856 1.183 1.613 1.183.931 0 1.687-.757 1.687-1.688.018-.934-.735-1.687-1.669-1.687zM65.57 49.568c-.17.171-.266.403-.265.644l-.007 1.265-1.219-.005V50.21c0-.241-.096-.473-.266-.643-.309-.318-.422-.779-.295-1.204.127-.424.475-.747.908-.842.088-.018.178-.027.268-.027.281-.001.554.097.771.276.286.232.453.581.453.949 0 .318-.126.623-.349.849m.283-2.275c-.503-.41-1.184-.524-1.793-.302-.609.223-1.055.75-1.175 1.387-.112.586.071 1.19.49 1.616.057.057.091.134.092.214v1.262c0 .164.065.322.182.438.116.117.274.182.438.182h1.212c.342-.001.62-.278.62-.62v-1.259c0-.081.032-.158.09-.215.36-.368.55-.871.52-1.386-.03-.515-.275-.993-.676-1.317" mask="url(#prefix__h)"/>
        <path fill="#FFF" d="M72.749 41.455c.12-.12.313-.12.433 0s.12.314 0 .434c-.121.115-.312.115-.433 0-.12-.12-.12-.314 0-.434zm.217 3.894c.08 0 .159.032.216.09.12.12.12.313 0 .433-.121.116-.312.116-.433 0-.087-.087-.114-.22-.066-.334.047-.114.159-.19.283-.19zm-4.29 1.242v5.806c0 .169-.137.306-.307.306h-7.354c-.17 0-.307-.137-.307-.306V46.59c0-.17.138-.306.307-.306h7.354c.17 0 .307.137.307.306zm-2.13-.92h-3.71v-1.906c.038-.998.857-1.788 1.856-1.788.999 0 1.819.79 1.855 1.788v1.907zm-1.854-4.92c1.682-.015 3.06 1.333 3.08 3.014v1.907h-.612v-1.907c-.036-1.336-1.131-2.401-2.468-2.401s-2.431 1.065-2.467 2.4v1.908h-.613v-1.907c.02-1.681 1.398-3.03 3.08-3.013zm5.912 6.833c.12-.12.313-.12.433 0s.12.313 0 .433c-.121.116-.312.116-.433 0-.12-.12-.12-.313 0-.433zm2.145 3.064c.077-.08.19-.111.298-.084.107.028.19.112.219.219.028.108-.004.22-.084.298-.121.116-.312.116-.433 0-.12-.12-.12-.313 0-.433zm-1.712 4.11c-.121.116-.312.116-.433 0-.087-.087-.114-.22-.066-.333.047-.115.159-.19.283-.19.124 0 .236.075.283.19.047.114.02.246-.067.334zm-12.563 0c-.121.116-.312.116-.433 0-.088-.087-.114-.22-.067-.333.047-.115.159-.19.283-.19.124 0 .236.075.284.19.047.114.02.246-.067.334zm-1.84-3.37c-.12.116-.311.116-.432 0-.088-.088-.114-.22-.066-.334.047-.115.159-.19.282-.19.124 0 .236.075.284.19.047.114.02.246-.067.334zm2.146-3.371c-.121.116-.312.116-.433 0-.12-.12-.12-.313 0-.433.077-.08.19-.112.298-.084.107.028.19.112.219.219.028.107-.004.22-.084.298zm-2.145-2.145c-.121.116-.312.116-.433 0-.12-.12-.12-.313 0-.433.077-.08.19-.112.298-.084.107.028.19.112.219.219.028.107-.004.22-.084.298zm-.433-3.983c-.12-.12-.12-.314 0-.434.077-.08.19-.111.298-.083.107.028.19.11.219.219.028.107-.004.22-.084.298-.121.115-.312.115-.433 0zm2.689-4.201c.169 0 .306.138.306.307 0 .169-.137.306-.306.306-.17 0-.307-.137-.307-.306 0-.17.137-.307.307-.307zm11.603 0c.169 0 .306.138.306.307 0 .169-.137.306-.306.306-.17 0-.307-.137-.307-.306 0-.17.138-.307.307-.307zm2.077 4.81c.403.194.887.068 1.145-.296.259-.366.216-.864-.1-1.18-.364-.347-.936-.347-1.3 0-.277.274-.348.695-.177 1.045h-.002l-1.163 1.163-1.255-1.254 1.01-1.006c.06-.057.092-.136.092-.218v-1.9c.42-.158.665-.596.58-1.037-.085-.441-.475-.756-.924-.747-.45.01-.826.342-.893.786-.066.444.197.87.624 1.012v1.76l-2.012 2.002c-.521-1.49-1.926-2.486-3.504-2.486s-2.983.997-3.504 2.486l-2.012-2.003v-1.761c.424-.141.684-.567.616-1.008-.067-.442-.443-.77-.89-.778-.445-.01-.833.306-.917.744-.083.439.16.874.578 1.03v1.9c0 .082.033.16.09.218l1.012 1.006-1.254 1.254-1.163-1.162h-.002c.17-.35.1-.77-.177-1.045-.364-.347-.937-.347-1.3 0-.32.316-.364.816-.104 1.182.259.367.745.492 1.148.295v.003l1.164 1.16-1.162 1.163-.004.006c-.35-.161-.763-.092-1.042.173-.36.359-.36.94 0 1.3.359.359.94.359 1.3 0 .277-.274.348-.694.177-1.044h.003l2.85-2.85.93.923c-.02.144-.03.289-.031.434v1.908c-.501.009-.903.418-.903.919v.899h-.668c-.045-.13-.118-.247-.215-.344-.363-.347-.936-.347-1.3 0-.268.267-.347.67-.197 1.019.15.347.499.567.877.553.379-.013.71-.258.835-.615h.669v.792l-1.876 1.876c-.057.057-.136.089-.217.09h-.721c-.045-.13-.118-.247-.215-.344-.363-.347-.936-.347-1.3 0-.172.173-.27.406-.27.65s.098.478.27.65c.222.226.545.32.854.25.308-.07.558-.294.66-.594h.67v2.207c-.13.042-.247.112-.344.207-.172.172-.27.407-.27.65 0 .244.098.478.27.65.232.233.57.324.888.239.317-.086.566-.333.65-.651.085-.317-.005-.656-.238-.888-.096-.095-.214-.165-.344-.207v-2.268c0-.076.03-.148.084-.202l1.449-1.448v2.63c0 .509.41.92.919.92h7.354c.508 0 .92-.411.92-.92v-2.63l1.14 1.14c.055.055.085.128.085.204v2.574c-.13.042-.246.112-.343.207-.36.359-.36.94-.001 1.3.359.359.94.36 1.3 0 .36-.36.36-.94 0-1.3-.096-.094-.214-.165-.343-.207V51.17h.975c.105.297.355.52.662.59.307.07.629-.023.852-.246.359-.36.359-.941 0-1.3-.364-.347-.937-.347-1.301 0-.096.097-.17.215-.214.344h-1.024c-.083 0-.162-.033-.221-.092l-1.567-1.568v-.792h.668c.125.358.456.603.835.617.379.014.728-.207.877-.555.15-.348.072-.752-.198-1.02-.364-.345-.936-.345-1.3 0-.096.098-.17.216-.214.345h-.668v-.903c0-.502-.402-.91-.903-.92v-1.906c-.001-.145-.011-.29-.03-.434l.929-.923 2.85 2.85h.004c-.201.423-.053.926.343 1.174.396.246.913.157 1.204-.208.29-.366.26-.891-.07-1.22-.28-.265-.692-.334-1.042-.173l-.004-.006-1.163-1.162 1.162-1.162.002-.002zM53.18 27.408c-2.484 0-4.499-2.014-4.499-4.499s2.015-4.499 4.5-4.499c2.484 0 4.5 2.014 4.5 4.5-.004 2.483-2.017 4.495-4.5 4.498zm-5.099-8.86v-.438l.6-.45v-3.449c0-.497-.403-.9-.899-.9h-.2c-.434-.264-1.514-.317-2.28-.078-.858.211-1.45.995-1.42 1.878v.3h.6v2.25l.6.45v.436l-2.165.544c-.667.167-1.135.767-1.134 1.454v.81c-.592-1.094-.9-2.319-.9-3.563v-3.855l5.698-2.849 5.7 2.85v3.854l-.003.103c-.875.157-1.693.54-2.373 1.112l-1.824-.459zm-.6.012v.45c0 .497-.403.9-.9.9-.496 0-.899-.403-.899-.9v-.45l.2.15h1.4l.2-.15zm-2.974-3.749c.061-.376.3-.699.642-.867.664-.295 1.411-.342 2.107-.133l.07.1h.456c.165 0 .3.134.3.3v.9l-.45-.6h-.52l-.064.031c-.354.176-.743.268-1.137.27h-1.404zm.575.6h.83c.462 0 .92-.104 1.338-.3h.081l.75 1v1.25l-1 .75h-1l-.999-.75v-1.95zm3.237 9.037l-1.738 1.157-2.359-1.572c-.116-.078-.229-.159-.34-.243v-2.68h-.6v2.177c-.329-.305-.63-.64-.899-.999v-1.743c0-.412.28-.772.68-.872l2.034-.51c.065.65.545 1.183 1.185 1.317v1.23h.6v-1.23c.64-.134 1.12-.667 1.184-1.317l1.335.335c-1.218 1.34-1.63 3.225-1.082 4.95zm-1.738 2.6l-3.025-2.016c-2.422-1.612-3.876-4.33-3.873-7.24v-4.595l6.898-3.45 6.9 3.45v4.628c-.1-.005-.199-.015-.3-.015-.103 0-.2.01-.3.015v-4.259l-6.3-3.149-6.298 3.15v4.225c-.002 2.71 1.352 5.24 3.606 6.741l2.692 1.793 1.963-1.308c.084.183.178.362.283.534l-2.246 1.496zm7.497-9.154l.002-5.069-7.499-3.749-7.498 3.75v4.966c-.003 3.11 1.552 6.015 4.141 7.74l3.357 2.236 2.587-1.723c1.398 1.791 3.813 2.44 5.921 1.59 2.107-.849 3.397-2.99 3.163-5.25-.235-2.26-1.937-4.092-4.174-4.49z" mask="url(#prefix__h)"/>
        <path fill="#FFF" d="M54.68 14.811L58.279 14.811 58.279 14.211 54.68 14.211zM54.68 16.01L57.079 16.01 57.079 15.41 54.68 15.41zM54.68 17.211L55.88 17.211 55.88 16.611 54.68 16.611zM52.076 25.242l-1.909-1.909.848-.848 1.061 1.06 2.97-2.969.848.848-3.818 3.818zm0-2.545l-1.06-1.06-1.697 1.696 2.757 2.757 4.666-4.665-1.697-1.697-2.969 2.97zM14.85 24.44c-.167-.156-.374-.353-.71-.502-.277-.123-.546-.13-.743-.134l-.068-.001c-.123-.338-.373-.55-.748-.633-.496-.104-.892.129-1.166.31.024-.14.064-.303.094-.422.095-.382.193-.777.12-1.147-.057-.293-.304-.51-.602-.531-.768-.043-1.395.37-1.948.744-.58.392-.952.626-1.322.493-.452-.161-.497-1.384-.28-2.473.194-.982.556-2.81 1.483-3.64.312-.28.764-.581 1.135-.434.437.17.798.89.879 1.747.033.362.349.627.717.595.362-.034.628-.355.594-.718-.13-1.397-.785-2.488-1.708-2.852-.553-.214-1.432-.272-2.497.68-1.158 1.039-1.586 2.798-1.897 4.365-.155.783-.534 3.38 1.13 3.972 1.016.36 1.84-.197 2.502-.643.12-.082.24-.162.356-.234-.11.478-.178.989.11 1.419.43.647 1.038.718 1.806.212l.096-.064c.072.149.198.313.426.425.277.135.554.142.755.148.086.002.204.004.24.02.123.055.197.122.339.256.107.1.22.206.363.314.118.089.256.13.393.13.2 0 .399-.09.528-.263.218-.291.159-.704-.132-.922-.096-.073-.172-.147-.245-.216zm2.598-8.162c.07.027.145.039.215.039.252 0 .489-.154.582-.404l1.614-4.353c.119-.321-.045-.677-.366-.796-.324-.117-.677.045-.796.366l-1.615 4.353c-.12.32.045.677.366.795zm4.595-5.868c-.698-.256-1.516.273-1.75.91l-1.53 4.168 2.54.932 1.527-4.167c.192-.522-.087-1.587-.787-1.843zm-3.675 6.084l2.539.933-2.112 5.75c-.197.54-1.27 2.233-2.015 2.578l-.181.494c-.047.126-.165.204-.291.204-.036 0-.071-.007-.107-.02-.16-.058-.243-.236-.184-.397l.172-.467c-.38-.736-.096-2.873.07-3.325l2.109-5.75z" mask="url(#prefix__h)"/>
    </g>
</svg>
